<?xml version="1.0" encoding="UTF-8"?>
<svg xmlns="http://www.w3.org/2000/svg" xmlns:xlink="http://www.w3.org/1999/xlink" width="192pt" height="192pt" viewBox="0 0 192 192" version="1.1">
<g id="surface2">
<path style=" stroke:none;fill-rule:nonzero;fill:rgb(0%,0%,0%);fill-opacity:1;" d="M 158.753906 181.890625 C 156.820312 182.601562 152.957031 181.011719 154.921875 183.734375 C 170.640625 197.730469 77.777344 187.238281 50.84375 191.917969 C 44.804688 192.59375 41.875 189.074219 36.007812 189.667969 C 34.207031 186.652344 22.988281 186.546875 22.65625 182.96875 C 22.714844 180.359375 27.695312 180.695312 30.394531 179.910156 C 28.648438 179.878906 26.710938 179.429688 26.203125 178.613281 C 23.617188 173.957031 31.363281 176.535156 32.359375 174.503906 C 32.140625 171.242188 34.757812 172.082031 36.4375 171.742188 C 38.042969 171.21875 39.519531 169.230469 41.351562 170.488281 C 42.515625 171.703125 44.117188 172.035156 45.800781 171.695312 C 48.375 169.617188 50.535156 171.648438 52.378906 168.980469 C 54.007812 167.617188 57.417969 168.882812 59.601562 169.257812 C 63.613281 166.828125 75.792969 167.179688 76.867188 170.996094 C 97.363281 176.6875 136.941406 171.550781 158.820312 178.554688 C 161.941406 178.675781 160.628906 182.132812 158.753906 181.882812 Z M 158.753906 181.890625 "/>
<path style=" stroke:none;fill-rule:nonzero;fill:rgb(0%,0%,0%);fill-opacity:1;" d="M 150.742188 85.238281 C 150.773438 85.164062 150.792969 85.082031 150.808594 84.992188 C 150.808594 84.953125 150.808594 84.925781 150.824219 84.902344 C 150.71875 84.878906 150.71875 85.066406 150.742188 85.238281 Z M 25.058594 110.371094 C 25.011719 110.558594 25 110.777344 25.074219 111 C 25.035156 110.789062 25.058594 110.578125 25.058594 110.371094 Z M 141.238281 59.550781 C 141.304688 59.730469 141.351562 59.875 141.464844 59.957031 C 141.78125 59.730469 141.40625 59.730469 141.238281 59.550781 Z M 141.238281 59.550781 "/>
<path style=" stroke:none;fill-rule:nonzero;fill:rgb(0%,0%,0%);fill-opacity:1;" d="M 171.839844 98.003906 C 172.175781 97.179688 171.726562 96.292969 171.179688 95.6875 C 171.601562 94.847656 172.417969 93.949219 171.710938 92.996094 C 170.617188 88.285156 173.464844 91.359375 172.875 82.316406 C 172.964844 69.222656 163.71875 52.742188 158.960938 43.480469 C 154.867188 36.167969 145.226562 22.359375 139.296875 20.464844 C 137.59375 18.019531 135.410156 16.542969 133.109375 14.53125 C 134.460938 14.945312 135.605469 13.097656 134.617188 12.0625 C 128.871094 5.230469 126.398438 6.84375 120.507812 6.242188 C 116.886719 3.828125 108.671875 2.078125 98.40625 0.578125 C 77.644531 -1.933594 78.734375 4.539062 67.289062 5.394531 C 63.179688 6.535156 52.65625 9.347656 55.851562 12.96875 C 47.925781 17.566406 40.988281 24.683594 34.785156 31.546875 C 31.753906 31.417969 30.308594 34.433594 27.300781 33.945312 C 21.742188 35.234375 32.3125 41.789062 24.480469 42.15625 C 23.453125 39.867188 17.992188 38.0625 18.9375 42.261719 C 18.023438 43.566406 19.460938 44.511719 19.71875 45.097656 C 18.527344 48.1875 22.914062 51.332031 24.007812 54.015625 C 23.671875 57.789062 17.503906 52.679688 19.019531 58.90625 C 18.816406 62.515625 23.285156 58.855469 21.613281 62.867188 C 19.363281 70.90625 26.324219 66.738281 27.457031 70.53125 C 27.179688 72.675781 24 75.332031 27.503906 76.652344 C 32.410156 75.691406 30.59375 78.65625 31.328125 81.953125 C 31.679688 102.457031 39.40625 75.152344 42.105469 68.957031 C 44.085938 63.085938 45.644531 66.796875 47.84375 63.945312 C 47.296875 61.5 49.972656 59.960938 51.390625 57.996094 C 52.1875 55.421875 54.570312 53.722656 57.105469 52.304688 C 57.472656 52.90625 57.644531 54.023438 58.6875 54.164062 C 68.113281 51.375 56.003906 46.910156 80.953125 37.769531 C 108.1875 27.636719 152.804688 56.003906 150.898438 84.164062 C 150.898438 84.480469 150.867188 84.75 150.808594 84.980469 C 150.808594 85.152344 150.914062 85.40625 150.757812 85.4375 C 150.75 85.386719 150.742188 85.308594 150.742188 85.234375 C 150.226562 86.742188 148.515625 86.292969 146.902344 87.34375 C 145.050781 95.078125 146.503906 100.859375 142.628906 108.246094 C 140.207031 117.179688 131.042969 122.300781 132.757812 127.632812 C 131.976562 129.199219 128.722656 130.339844 129.621094 132.53125 C 133.699219 135.757812 109.992188 146.984375 107.542969 146.660156 C 107.339844 144.238281 104.78125 145.25 103.214844 145.574219 C 101.738281 144.660156 99.503906 144.695312 98.949219 146.640625 C 96.683594 144.796875 93.855469 144.652344 91.433594 144.40625 C 89.769531 145.074219 90.039062 147.542969 89.507812 148.980469 C 85.496094 149.234375 88.9375 145.171875 82.847656 146.414062 C 70.121094 143.488281 61.089844 143.660156 48.40625 132.148438 C 48.546875 128 40.554688 123.761719 38.519531 120.351562 C 37.386719 118.882812 36.222656 115.371094 34.246094 114.945312 C 29.4375 103.191406 27.40625 101.730469 26.972656 85.359375 C 19.863281 79.308594 24.527344 104.273438 25.253906 109.292969 C 25.980469 133.300781 52.839844 149.664062 64.832031 157.839844 C 65.070312 157.921875 65.3125 158.003906 65.550781 158.078125 C 65.542969 158.117188 65.527344 158.152344 65.519531 158.191406 C 65.722656 158.25 66.035156 158.332031 66.203125 158.289062 C 106.269531 171.0625 164.484375 147.300781 173.355469 100.847656 C 173.503906 99.152344 172.125 98.996094 171.839844 98.003906 Z M 151.523438 32.199219 C 151.613281 32.296875 151.6875 32.394531 151.734375 32.484375 C 151.660156 32.386719 151.59375 32.296875 151.523438 32.199219 Z M 153.628906 35.121094 C 153.472656 34.910156 153.515625 34.925781 153.644531 35.105469 Z M 153.628906 35.121094 "/>
</g>
</svg>
