<?xml version="1.0" encoding="UTF-8"?>
<svg xmlns="http://www.w3.org/2000/svg" version="1.1" viewBox="0 0 1024 1024">
  <defs>
    <style>
      .cls-1 {
        fill: #fff;
      }
    </style>
  </defs>
  <!-- Generator: Adobe Illustrator 28.6.0, SVG Export Plug-In . SVG Version: 1.2.0 Build 709)  -->
  <g>
    <g id="Layer_1">
      <g>
        <path class="cls-1" d="M846.67,970.06c-10.32,3.8-30.92-4.68-20.44,9.84,83.84,74.64-411.44,18.68-555.07,43.64-32.2,3.6-47.84-15.16-79.12-12-9.6-16.08-69.44-16.64-71.2-35.72.32-13.92,26.88-12.12,41.28-16.32-9.32-.16-19.64-2.56-22.36-6.92-13.8-24.84,27.52-11.08,32.84-21.92-1.16-17.4,12.8-12.92,21.76-14.72,8.56-2.8,16.44-13.4,26.2-6.68,6.2,6.48,14.76,8.24,23.72,6.44,13.72-11.08,25.24-.24,35.08-14.48,8.68-7.28,26.88-.52,38.52,1.48,21.4-12.96,86.36-11.08,92.08,9.28,109.32,30.36,320.4,2.96,437.07,40.32,16.64.64,9.64,19.08-.36,17.76Z"/>
        <path class="cls-1" d="M803.95,454.59c.16-.4.28-.84.36-1.32v-.04c0-.16.04-.32.08-.44-.56-.12-.56.88-.44,1.8ZM133.64,588.62c-.24,1-.32,2.16.08,3.36-.2-1.12-.08-2.24-.08-3.36ZM753.27,317.59c.36.96.6,1.72,1.2,2.16,1.68-1.2-.32-1.2-1.2-2.16Z"/>
        <path class="cls-1" d="M916.47,522.66c1.8-4.4-.6-9.12-3.52-12.36,2.24-4.48,6.6-9.28,2.84-14.36-5.84-25.12,9.36-8.72,6.2-56.96.48-69.84-48.84-157.72-74.2-207.12-21.84-39-73.24-112.64-104.88-122.76-9.08-13.04-20.72-20.92-33-31.64,7.2,2.2,13.32-7.64,8.04-13.16-30.64-36.44-43.84-27.84-75.24-31.04-19.32-12.88-63.12-22.2-117.88-30.2-110.72-13.4-104.92,21.12-165.96,25.68-21.92,6.08-78.04,21.08-61,40.4-42.28,24.52-79.28,62.48-112.36,99.08-16.16-.68-23.88,15.4-39.92,12.8-29.64,6.88,26.72,41.84-15.04,43.8-5.48-12.2-34.6-21.84-29.56.56-4.88,6.96,2.8,12,4.16,15.12-6.36,16.48,17.04,33.24,22.88,47.56-1.8,20.12-34.68-7.12-26.6,26.08-1.08,19.24,22.76-.28,13.84,21.12-12,42.88,25.12,20.64,31.16,40.88-1.48,11.44-18.44,25.6.24,32.64,26.16-5.12,16.48,10.68,20.4,28.28,1.88,109.36,43.08-36.28,57.48-69.32,10.56-31.32,18.88-11.52,30.6-26.72-2.92-13.04,11.36-21.24,18.92-31.72,4.24-13.72,16.96-22.8,30.48-30.36,1.96,3.2,2.88,9.16,8.44,9.92,50.28-14.88-14.32-38.68,118.76-87.44,145.24-54.04,383.2,97.24,373.04,247.44,0,1.68-.16,3.12-.48,4.36v.04c.04.88.56,2.24-.28,2.4-.04-.28-.08-.68-.08-1.08-2.76,8.04-11.88,5.64-20.48,11.24-9.88,41.24-2.12,72.08-22.8,111.48-12.92,47.64-61.8,74.96-52.64,103.4-4.16,8.36-21.52,14.44-16.72,26.12,21.76,17.2-104.68,77.08-117.76,75.36-1.08-12.92-14.72-7.52-23.08-5.8-7.88-4.88-19.8-4.68-22.76,5.68-12.08-9.84-27.16-10.6-40.08-11.92-8.88,3.56-7.44,16.72-10.28,24.4-21.4,1.36-3.04-20.32-35.52-13.68-67.88-15.6-116.04-14.68-183.68-76.08.76-22.12-41.88-44.72-52.72-62.92-6.04-7.84-12.24-26.56-22.8-28.84-25.64-62.68-36.48-70.48-38.8-157.8-37.92-32.28-13.04,100.88-9.16,127.64,3.88,128.04,147.12,215.32,211.08,258.92,1.28.44,2.56.88,3.84,1.28-.04.2-.12.4-.16.6,1.08.32,2.76.76,3.64.52,213.68,68.12,524.15-58.6,571.47-306.36.8-9.04-6.56-9.88-8.08-15.16ZM808.11,171.71c.48.52.88,1.04,1.12,1.52-.4-.52-.76-1-1.12-1.52ZM819.35,187.31c-.84-1.12-.6-1.04.08-.08l-.08.08Z"/>
      </g>
    </g>
  </g>
</svg>